<?xml version="1.0" encoding="utf-8"?>
<!-- Generator: Adobe Illustrator 22.0.1, SVG Export Plug-In . SVG Version: 6.00 Build 0)  -->
<svg version="1.1" id="Layer_1" xmlns:sketch="http://www.bohemiancoding.com/sketch/ns"
	 xmlns="http://www.w3.org/2000/svg" xmlns:xlink="http://www.w3.org/1999/xlink" x="0px" y="0px" viewBox="0 0 1220.1 323.9"
	 style="enable-background:new 0 0 1220.1 323.9;" xml:space="preserve">
<style type="text/css">
	.st0{fill:#FFFFFF;}
</style>
<title>GooglePlay</title>
<desc>Created with Sketch.</desc>
<g id="Page-1" sketch:type="MSPage">
	<g id="GooglePlay" sketch:type="MSArtboardGroup">
		<g id="App-Store" transform="translate(20.000000, 16.000000)" sketch:type="MSLayerGroup">
			<g id="icon" transform="translate(130.000000, 88.000000)" sketch:type="MSShapeGroup">
				<path id="Fill-2" class="st0" d="M48.8,47.7C48.5,12,78.1-5.4,79.5-6.3C62.7-30.7,36.7-34,27.6-34.3
					c-21.8-2.3-43,13.1-54.1,13.1c-11.3,0-28.5-12.8-46.9-12.5c-23.7,0.4-46,14.1-58.1,35.5c-25.1,43.5-6.4,107.5,17.7,142.7
					c12.1,17.2,26.1,36.5,44.6,35.8c18-0.7,24.8-11.5,46.5-11.5c21.6,0,27.9,11.5,46.7,11.1c19.4-0.3,31.5-17.3,43.2-34.7
					c13.9-19.7,19.5-39.2,19.7-40.2C86.3,104.8,49.2,90.6,48.8,47.7"/>
				<path id="Fill-3" class="st0" d="M13.3-57.5c9.7-12.1,16.3-28.6,14.5-45.4c-14,0.6-31.6,9.7-41.7,21.6
					c-8.9,10.5-16.9,27.6-14.9,43.7C-13-36.4,3.2-45.5,13.3-57.5"/>
			</g>
			<g transform="translate(459.000000, 218.000000)" sketch:type="MSShapeGroup">
				<path id="Fill-4" class="st0" d="M-19,47.8h-25.2L-58,4.4h-48l-13.1,43.4h-24.5l47.6-147.7h29.4L-19,47.8L-19,47.8z M-62.2-13.8
					l-12.5-38.6c-1.3-4-3.8-13.2-7.4-27.8h-0.4c-1.5,6.3-3.8,15.6-7,27.8l-12.3,38.6H-62.2L-62.2-13.8z"/>
				<path id="Fill-5" class="st0" d="M103.1-6.8c0,18.1-4.9,32.4-14.8,42.9c-8.8,9.4-19.8,14-32.8,14c-14.1,0-24.2-5-30.4-15.1v55.9
					H1.4V-23.7c0-11.4-0.3-23-0.9-35h20.8l1.3,16.9h0.4C31-54.6,43-60.9,59-60.9c12.6,0,23,5,31.4,14.9
					C98.8-36.1,103.1-23,103.1-6.8L103.1-6.8z M79-5.9c0-10.4-2.3-18.9-7-25.6c-5.1-7-12-10.5-20.6-10.5c-5.8,0-11.1,2-15.9,5.8
					c-4.7,3.9-7.9,8.9-9.3,15.2c-0.7,2.9-1.1,5.3-1.1,7.2V4c0,7.7,2.4,14.3,7.1,19.6c4.7,5.3,10.9,8,18.5,8
					c8.9,0,15.8-3.5,20.8-10.3C76.5,14.4,79,5.3,79-5.9L79-5.9z"/>
				<path id="Fill-6" class="st0" d="M225.5-6.8c0,18.1-4.9,32.4-14.8,42.9c-8.8,9.4-19.8,14-32.8,14c-14.1,0-24.2-5-30.4-15.1v55.9
					h-23.7V-23.7c0-11.4-0.3-23-0.9-35h20.8l1.3,16.9h0.4c7.9-12.7,19.9-19.1,35.9-19.1c12.6,0,23,5,31.4,14.9
					C221.3-36.1,225.5-23,225.5-6.8L225.5-6.8z M201.4-5.9c0-10.4-2.3-18.9-7-25.6c-5.1-7-12-10.5-20.6-10.5c-5.8,0-11.1,2-15.9,5.8
					c-4.7,3.9-7.8,8.9-9.3,15.2c-0.7,2.9-1.1,5.3-1.1,7.2V4c0,7.7,2.4,14.3,7.1,19.6c4.7,5.3,10.9,8,18.5,8
					c8.9,0,15.9-3.5,20.8-10.3C198.9,14.4,201.4,5.3,201.4-5.9L201.4-5.9z"/>
				<path id="Fill-7" class="st0" d="M362.5,6.4c0,12.6-4.4,22.8-13.1,30.7c-9.6,8.6-23,12.9-40.2,12.9c-15.9,0-28.6-3.1-38.2-9.2
					l5.5-19.7c10.4,6.1,21.8,9.2,34.2,9.2c8.9,0,15.9-2,20.8-6c5-4,7.5-9.4,7.5-16.1c0-6-2.1-11-6.1-15.1
					c-4.1-4.1-10.9-7.9-20.4-11.4c-25.9-9.6-38.8-23.8-38.8-42.3c0-12.1,4.6-22,13.7-29.8c9.1-7.7,21.2-11.6,36.3-11.6
					c13.4,0,24.6,2.3,33.5,7L351-75.8c-8.4-4.5-17.8-6.8-28.4-6.8c-8.3,0-14.9,2.1-19.6,6.1c-3.9,3.7-5.9,8.1-5.9,13.4
					c0,5.8,2.3,10.7,6.8,14.4c3.9,3.5,11.1,7.3,21.5,11.4c12.7,5.1,22,11.1,28,18C359.5-12.4,362.5-3.8,362.5,6.4"/>
				<path id="Fill-8" class="st0" d="M440.9-41h-26.1v51.7c0,13.1,4.6,19.7,13.8,19.7c4.2,0,7.7-0.4,10.5-1.1l0.7,18
					c-4.7,1.7-10.8,2.6-18.4,2.6c-9.4,0-16.6-2.9-21.9-8.6c-5.3-5.7-7.9-15.3-7.9-28.7V-41H376v-17.8h15.5v-19.5l23.2-7v26.5h26.1
					V-41"/>
				<path id="Fill-9" class="st0" d="M558.3-6.3c0,16.4-4.7,29.8-14,40.3c-9.8,10.8-22.8,16.2-39,16.2c-15.6,0-28.1-5.2-37.4-15.5
					S454,11.2,454-4.6c0-16.5,4.8-30,14.3-40.5c9.6-10.5,22.5-15.8,38.7-15.8c15.6,0,28.2,5.2,37.7,15.6
					C553.8-35.3,558.3-22.3,558.3-6.3L558.3-6.3z M533.8-5.8c0-9.8-2.1-18.1-6.3-25.1c-5-8.5-12.1-12.7-21.3-12.7
					c-9.5,0-16.8,4.2-21.7,12.7c-4.3,7-6.3,15.5-6.3,25.6c0,9.8,2.1,18.2,6.3,25.1c5.1,8.5,12.3,12.7,21.5,12.7
					c9,0,16.1-4.3,21.3-12.9C531.6,12.4,533.8,4,533.8-5.8L533.8-5.8z"/>
				<path id="Fill-10" class="st0" d="M635.3-37.9c-2.3-0.4-4.8-0.6-7.5-0.6c-8.3,0-14.8,3.1-19.3,9.4c-3.9,5.5-5.9,12.6-5.9,21
					v55.9h-23.7v-73c0-12.3-0.2-23.5-0.7-33.5h20.6l0.9,20.4h0.7c2.5-7,6.4-12.7,11.8-16.9c5.3-3.8,11-5.7,17.1-5.7
					c2.2,0,4.2,0.2,5.9,0.4L635.3-37.9"/>
				<path id="Fill-11" class="st0" d="M741.1-10.5c0,4.2-0.3,7.8-0.9,10.7h-71c0.3,10.5,3.7,18.6,10.3,24.1c6,4.9,13.7,7.4,23.2,7.4
					c10.5,0,20.1-1.7,28.7-5l3.7,16.4c-10.1,4.4-22,6.6-35.7,6.6c-16.5,0-29.5-4.9-38.9-14.6c-9.4-9.7-14.1-22.8-14.1-39.1
					c0-16,4.4-29.4,13.2-40.1c9.2-11.4,21.6-17.1,37.2-17.1c15.3,0,27,5.7,34.8,17.1C737.9-35,741.1-23.8,741.1-10.5L741.1-10.5z
					 M718.5-16.6c0.2-7-1.4-13.1-4.6-18.2c-4.1-6.6-10.4-9.9-18.8-9.9c-7.7,0-14,3.2-18.8,9.6c-3.9,5.1-6.3,11.3-7,18.4L718.5-16.6
					L718.5-16.6z"/>
			</g>
			<g id="Available-on-the" transform="translate(468.000000, 91.000000)" sketch:type="MSShapeGroup">
				<path id="Fill-12" class="st0" d="M-82.6-25.8H-95l-6.8-21.3h-23.6l-6.5,21.3h-12.1l23.4-72.6h14.4L-82.6-25.8L-82.6-25.8z
					 M-103.8-56l-6.1-19c-0.6-1.9-1.8-6.5-3.7-13.7h-0.2c-0.8,3.1-1.8,7.6-3.5,13.7l-6,19H-103.8L-103.8-56z"/>
				<path id="Fill-13" class="st0" d="M-24.1-78.1l-19.8,52.3h-11.3l-19.2-52.3h12.5l8.9,27.7c1.5,4.6,2.8,9,3.8,13.2h0.3
					c0.9-3.8,2.2-8.2,3.8-13.2l8.8-27.7H-24.1"/>
				<path id="Fill-14" class="st0" d="M18.1-25.8l-0.9-6h-0.3c-3.6,4.8-8.7,7.2-15.3,7.2c-9.4,0-16-6.6-16-15.4
					c0-12.9,11.2-19.6,30.6-19.6v-1c0-6.9-3.7-10.3-10.9-10.3c-5.2,0-9.7,1.3-13.7,3.9l-2.4-7.6c4.8-3,10.9-4.5,18-4.5
					c13.7,0,20.6,7.2,20.6,21.7v19.3c0,5.3,0.2,9.4,0.8,12.5L18.1-25.8L18.1-25.8z M16.4-51.8c-12.9,0-19.4,3.1-19.4,10.6
					c0,5.5,3.3,8.2,8,8.2c5.9,0,11.4-4.5,11.4-10.7V-51.8L16.4-51.8z"/>
				<path id="Fill-15" class="st0" d="M53.7-86.7c-3.9,0-6.9-3-6.9-7s3.1-6.9,7.1-6.9c4,0,7.2,2.9,7.1,6.9
					C61-89.5,58-86.7,53.7-86.7L53.7-86.7z M48.1-78.1h11.6v52.3H48.1V-78.1z"/>
				<path id="Fill-16" class="st0" d="M80.4-102.1H92v76.3H80.4V-102.1z"/>
				<path id="Fill-17" class="st0" d="M141.4-25.8l-0.9-6h-0.3c-3.6,4.8-8.7,7.2-15.3,7.2c-9.4,0-16-6.6-16-15.4
					c0-12.9,11.2-19.6,30.6-19.6v-1c0-6.9-3.7-10.3-10.9-10.3c-5.2,0-9.7,1.3-13.7,3.9l-2.4-7.7c4.8-3,10.9-4.5,18-4.5
					c13.7,0,20.6,7.2,20.6,21.7v19.3c0,5.3,0.2,9.4,0.7,12.5H141.4L141.4-25.8z M139.8-51.8c-12.9,0-19.4,3.1-19.4,10.6
					c0,5.5,3.3,8.2,8,8.2c5.9,0,11.4-4.5,11.4-10.7V-51.8L139.8-51.8z"/>
				<path id="Fill-18" class="st0" d="M198.2-24.6c-7.4,0-12.9-3.1-16.5-9.3h-0.2l-0.7,8.1H171c0.3-4.2,0.4-8.9,0.4-14.1v-62.2h11.7
					v31.7h0.2c3.5-5.8,9-8.7,16.7-8.7c12.6,0,21.4,10.8,21.4,26.5C221.4-36.4,211.6-24.6,198.2-24.6L198.2-24.6z M195.9-70
					c-6.7,0-12.8,5.8-12.8,13.9v9.2c0,7.2,5.5,13.1,12.6,13.1c8.7,0,13.9-7.1,13.9-18.4C209.6-62.8,204.2-70,195.9-70L195.9-70z"/>
				<path id="Fill-19" class="st0" d="M238.6-102.1h11.6v76.3h-11.6V-102.1z"/>
				<path id="Fill-20" class="st0" d="M313.5-49.1h-34.9c0.2,9.9,6.8,15.5,16.5,15.5c5.2,0,9.9-0.9,14.1-2.5L311-28
					c-4.9,2.2-10.8,3.2-17.5,3.2c-16.4,0-26.1-10.3-26.1-26.4c0-16,9.9-28.1,24.8-28.1c13.3,0,21.8,9.9,21.8,24.9
					C314-52.4,313.9-50.5,313.5-49.1L313.5-49.1z M302.9-57.4c0-8.1-4.1-13.8-11.5-13.8c-6.7,0-11.9,5.8-12.7,13.8H302.9L302.9-57.4
					z"/>
				<path id="Fill-21" class="st0" d="M384-24.6c-15.3,0-25.2-11.4-25.2-26.9c0-16.2,10.1-27.7,26.1-27.7
					c15.1,0,25.2,10.9,25.2,26.8C410.1-36,399.6-24.6,384-24.6L384-24.6z M384.5-70.7c-8.4,0-13.8,7.9-13.8,18.8
					c0,10.8,5.5,18.6,13.7,18.6c8.2,0,13.7-8.4,13.7-18.9C398-62.7,392.6-70.7,384.5-70.7L384.5-70.7z"/>
				<path id="Fill-22" class="st0" d="M472.6-25.8H461v-30.1c0-9.3-3.6-13.9-10.6-13.9c-6.9,0-11.6,5.9-11.6,12.8v31.1h-11.6v-37.4
					c0-4.6-0.1-9.6-0.4-15H437l0.5,8.1h0.3c3.1-5.6,9.5-9.2,16.6-9.2c11,0,18.2,8.4,18.2,22.1V-25.8"/>
				<path id="Fill-23" class="st0" d="M548.7-69.4h-12.8V-44c0,6.5,2.3,9.7,6.8,9.7c2,0,3.8-0.2,5.2-0.5l0.3,8.8
					c-2.3,0.9-5.3,1.3-9,1.3c-9.2,0-14.6-5.1-14.6-18.3v-26.4h-7.6v-8.7h7.6v-9.6l11.4-3.5v13h12.8V-69.4"/>
				<path id="Fill-24" class="st0" d="M610.3-25.8h-11.6v-29.8c0-9.4-3.6-14.1-10.6-14.1c-6,0-11.6,4.1-11.6,12.4v31.5h-11.6v-76.3
					h11.6v31.4h0.2c3.7-5.7,8.9-8.5,15.7-8.5c11.1,0,17.9,8.6,17.9,22.3V-25.8"/>
				<path id="Fill-25" class="st0" d="M669.7-49.1h-34.9c0.2,9.9,6.8,15.5,16.5,15.5c5.2,0,9.9-0.9,14.1-2.5l1.8,8.1
					c-4.9,2.2-10.8,3.2-17.6,3.2c-16.4,0-26.1-10.3-26.1-26.4c0-16,9.9-28.1,24.8-28.1c13.3,0,21.8,9.9,21.8,24.9
					C670.1-52.4,670-50.5,669.7-49.1L669.7-49.1z M659.1-57.4c0-8.1-4.1-13.8-11.5-13.8c-6.7,0-12,5.8-12.7,13.8H659.1L659.1-57.4z"
					/>
			</g>
		</g>
	</g>
</g>
</svg>
