<?xml version="1.0" encoding="utf-8"?>
<!-- Generator: Adobe Illustrator 22.0.1, SVG Export Plug-In . SVG Version: 6.00 Build 0)  -->
<svg version="1.1" id="Capa_1" xmlns="http://www.w3.org/2000/svg" xmlns:xlink="http://www.w3.org/1999/xlink" x="0px" y="0px"
	 viewBox="0 0 512 512" style="enable-background:new 0 0 512 512;" xml:space="preserve">
<style type="text/css">
	.st0{fill:#FFFFFF;}
</style>
<g>
	<path class="st0" d="M81,93.6c0.1-6.3,2.7-12.5,7.2-17l69.5-69.5C162.2,2.6,168.6,0,175,0c6.4,0,12.8,2.6,17.4,7.2l231.4,231.4
		c4.5,4.5,7.2,10.9,7.2,17.4c0,6.4-2.6,12.8-7.2,17.4L192.4,504.8c-4.5,4.5-10.9,7.2-17.4,7.2c-6.4,0-12.8-2.6-17.4-7.2l-69.5-69.5
		c-4.5-4.5-7.2-10.9-7.2-17.3s2.6-12.8,7.2-17.3L232.9,256L88.2,111.3C83.6,106.7,80.9,100.2,81,93.6L81,93.6z"/>
</g>
</svg>
