<?xml version="1.0"?>
<svg xmlns="http://www.w3.org/2000/svg" xmlns:xlink="http://www.w3.org/1999/xlink" version="1.1" id="Capa_1" x="0px" y="0px" viewBox="0 0 155.139 155.139" style="enable-background:new 0 0 155.139 155.139;" xml:space="preserve" width="512px" height="512px"><g><g>
	<path d="M77.563,0C34.715,0,0,34.739,0,77.569c0,42.854,34.715,77.569,77.563,77.569   s77.575-34.715,77.575-77.569C155.139,34.739,120.411,0,77.563,0z M104.414,47.735c8.234,0,14.923,6.683,14.923,14.917   c0,8.24-6.689,14.917-14.923,14.917c-8.222,0-14.911-6.677-14.911-14.917C89.503,54.418,96.192,47.735,104.414,47.735z    M50.712,47.735c8.234,0,14.923,6.683,14.923,14.917c0,8.24-6.689,14.917-14.923,14.917c-8.222,0-14.911-6.677-14.911-14.917   C35.801,54.418,42.49,47.735,50.712,47.735z M77.563,133.825c-24.655,0-44.746-15.007-44.746-33.54c0-18.515,20.09,0,44.746,0   c24.667,0,44.757-18.515,44.757,0C122.321,118.818,102.23,133.825,77.563,133.825z" data-original="#010002" class="active-path" data-old_color="#ffffff" fill="#ffffff"/>
</g></g> </svg>
