<?xml version="1.0"?>
<svg xmlns="http://www.w3.org/2000/svg" xmlns:xlink="http://www.w3.org/1999/xlink" version="1.1" id="Capa_1" x="0px" y="0px" viewBox="0 0 512 512" style="enable-background:new 0 0 512 512;" xml:space="preserve" width="512px" height="512px" class=""><g><g>
	<g>
		<path d="M374.999,482H162.952l-69.315,30h281.362c8.291,0,15-6.709,15-15C389.999,488.709,383.29,482,374.999,482z" data-original="#000000" class="active-path" data-old_color="#ffffff" fill="#ffffff"/>
	</g>
</g><g>
	<g>
		<polygon points="339.713,65.784 297.288,108.21 403.346,214.276 445.779,171.843   " data-original="#000000" class="active-path" data-old_color="#ffffff" fill="#ffffff"/>
	</g>
</g><g>
	<g>
		<polygon points="276.077,129.421 82.4,325.038 188.464,431.099 382.135,235.486   " data-original="#000000" class="active-path" data-old_color="#ffffff" fill="#ffffff"/>
	</g>
</g><g>
	<g>
		<path d="M498.808,55.181l-42.422-42.437c-17.007-17.007-46.685-16.978-63.633,0l-31.829,31.829L466.99,150.632l31.818-31.818    C516.426,101.196,516.368,72.712,498.808,55.181z" data-original="#000000" class="active-path" data-old_color="#ffffff" fill="#ffffff"/>
	</g>
</g><g>
	<g>
		<path d="M64.489,349.549L1.303,490.877c-2.52,5.654-1.318,12.261,3.032,16.67c4.266,4.33,10.822,5.704,16.626,3.223    l142.899-61.853L64.489,349.549z" data-original="#000000" class="active-path" data-old_color="#ffffff" fill="#ffffff"/>
	</g>
</g></g> </svg>
