<?xml version="1.0"?>
<svg xmlns="http://www.w3.org/2000/svg" height="512px" viewBox="0 0 512 512" width="512px" class=""><g><path d="m463.210938 48.789062c-31.464844-31.460937-73.355469-48.789062-117.953126-48.789062-44.585937 0-86.472656 17.332031-117.9375 48.800781-31.46875 31.46875-48.800781 73.355469-48.800781 117.9375 0 14.578125 2.125 29.914063 6.492188 46.894531.367187 1.414063-.078125 2.960938-1.15625 4.039063l-173.796875 173.800781c-6.488282 6.484375-10.058594 15.105469-10.058594 24.277344v61.914062c0 18.933594 15.402344 34.335938 34.335938 34.335938h50.585937c18.933594 0 34.335937-15.402344 34.335937-34.335938v-14.882812c0-2.390625 1.945313-4.335938 4.335938-4.335938h14.882812c18.933594 0 34.335938-15.402343 34.335938-34.335937v-14.882813c0-2.390624 1.945312-4.335937 4.335938-4.335937h26.210937c9.171875 0 17.796875-3.574219 24.28125-10.058594l66.503906-66.507812c1.089844-1.089844 2.738281-1.507813 4.296875-1.089844 15.488282 4.144531 31.238282 6.246094 46.816406 6.246094 44.585938 0 86.472657-17.332031 117.941407-48.800781 31.464843-31.46875 48.800781-73.351563 48.800781-117.9375 0-44.597657-17.328125-86.488282-48.789062-117.953126zm-117.71875 208.871094c-49.625 0-90-40.375-90-90 0-49.628906 40.375-90 90-90 49.628906 0 90 40.371094 90 90 0 49.625-40.371094 90-90 90zm0 0" data-original="#000000" class="active-path" data-old_color="#ffffff" fill="#ffffff"/></g> </svg>
