<?xml version="1.0"?>
<svg xmlns="http://www.w3.org/2000/svg" height="512px" viewBox="0 -64 448 448" width="512px"><g><path d="m160 64c0 8.835938-7.164062 16-16 16s-16-7.164062-16-16 7.164062-16 16-16 16 7.164062 16 16zm0 0" data-original="#000000" class="active-path" data-old_color="#ffffff" fill="#ffffff"/><path d="m16 320h416c8.835938 0 16-7.164062 16-16v-25.375l-160-160-97.375 97.375 8 8h57.375c8.835938 0 16 7.164062 16 16s-7.164062 16-16 16h-64c-4.242188 0-8.3125-1.6875-11.3125-4.6875l-68.6875-68.6875-112 112v9.375c0 8.835938 7.164062 16 16 16zm0 0" data-original="#000000" class="active-path" data-old_color="#ffffff" fill="#ffffff"/><path d="m0 249.375 100.6875-100.6875c6.25-6.246094 16.375-6.246094 22.625 0l44.6875 44.6875 108.6875-108.6875c6.25-6.246094 16.375-6.246094 22.625 0l148.6875 148.6875v-217.375c0-8.835938-7.164062-16-16-16h-416c-8.835938 0-16 7.164062-16 16zm144-233.375c26.507812 0 48 21.492188 48 48s-21.492188 48-48 48-48-21.492188-48-48 21.492188-48 48-48zm0 0" data-original="#000000" class="active-path" data-old_color="#ffffff" fill="#ffffff"/></g> </svg>
